<?xml version="1.0" encoding="UTF-8"?>
<svg xmlns="http://www.w3.org/2000/svg" xmlns:xlink="http://www.w3.org/1999/xlink" id="Layer_2" viewBox="0 0 646.48 140.64">
  <defs>
    <style>.cls-1{fill:url(#linear-gradient-2);}.cls-2{fill:#271f5c;}.cls-3{fill:#271fff;}.cls-4{fill:url(#linear-gradient);}</style>
    <linearGradient id="linear-gradient" x1="136.62" y1="24.99" x2="201.5" y2="24.99" gradientUnits="userSpaceOnUse">
      <stop offset="0" stop-color="aqua"></stop>
      <stop offset=".13" stop-color="#03e8ff"></stop>
      <stop offset=".41" stop-color="#0eaeff"></stop>
      <stop offset=".8" stop-color="#1e51ff"></stop>
      <stop offset="1" stop-color="#271fff"></stop>
    </linearGradient>
    <linearGradient id="linear-gradient-2" x1="0" y1="46.84" x2="154.16" y2="46.84" gradientUnits="userSpaceOnUse">
      <stop offset="0" stop-color="blue"></stop>
      <stop offset=".17" stop-color="#0504e8"></stop>
      <stop offset=".54" stop-color="#130fae"></stop>
      <stop offset="1" stop-color="#271f5c"></stop>
    </linearGradient>
  </defs>
  <g id="Layer_1-2">
    <path class="cls-3" d="m238.43,140.1v-25.84h3.96v25.84h-3.96Z"></path>
    <path class="cls-3" d="m271.87,140.1v-22.28h-8.42v-3.56h20.8v3.56h-8.42v22.28h-3.96Z"></path>
    <path class="cls-3" d="m336.71,140.1v-22.28h-8.42v-3.56h20.8v3.56h-8.42v22.28h-3.96Z"></path>
    <path class="cls-3" d="m368.64,127.14c0-7.63,5.65-13.43,13.14-13.43s13.14,5.8,13.14,13.43-5.65,13.5-13.14,13.5-13.14-5.87-13.14-13.5Zm22.17,0c0-5.54-3.56-9.86-9.04-9.86s-9.04,4.32-9.04,9.86,3.56,9.94,9.04,9.94,9.04-4.39,9.04-9.94Z"></path>
    <path class="cls-3" d="m415.08,127.14c0-7.63,5.47-13.43,12.99-13.43,6.66,0,11.16,4.07,12.74,9.43h-4.61c-.97-3.31-3.82-5.87-8.24-5.87-5.11,0-8.78,3.85-8.78,9.93,0,5.72,3.49,10.04,9.25,10.04,4.79,0,7.81-2.95,8.53-7.38h-8.93v-3.17h13.1c.14,8.28-4.93,13.93-12.85,13.93-7.45,0-13.21-5.65-13.21-13.5Z"></path>
    <path class="cls-3" d="m479.23,140.1h-16.38v-25.84h16.13v3.46h-12.17v7.34h11.09v3.46h-11.09v8.14h12.42v3.46Z"></path>
    <path class="cls-3" d="m507.74,140.1v-22.28h-8.42v-3.56h20.8v3.56h-8.42v22.28h-3.96Z"></path>
    <path class="cls-3" d="m541.18,140.1v-25.84h3.96v10.8h13.1v-10.8h3.96v25.84h-3.96v-11.59h-13.1v11.59h-3.96Z"></path>
    <path class="cls-3" d="m601.77,140.1h-16.38v-25.84h16.13v3.46h-12.17v7.34h11.09v3.46h-11.09v8.14h12.42v3.46Z"></path>
    <path class="cls-3" d="m623.99,140.1v-25.84h9.65c5.94,0,9.5,2.92,9.5,8.06,0,3.71-2.34,6.55-6.26,7.49l7.02,10.29h-4.75l-6.44-9.72h-4.75v9.72h-3.96Zm3.96-13.03h5.44c3.67,0,5.76-1.62,5.76-4.75s-2.09-4.75-5.76-4.75h-5.44v9.5Z"></path>
    <path class="cls-2" d="m239.02,72.14l-13.4-56.98h18.76l12.13,53.17c0,.28-.14.28.42.28.42,0,.28-.14.28-.14l10.3-40.48c2.68-10.01,8.46-14.95,17.07-14.95s14.39,4.94,16.78,14.67l10.3,40.76c0,.14,0,.28.42.28s.42-.14.42-.42l11.71-53.17h18.48l-12.83,56.98c-2.26,10.15-10.3,14.81-17.91,14.81-8.18,0-14.25-4.94-16.78-14.81l-10.44-41.61s.14-.14-.28-.14c-.28,0-.14.14-.14.14l-10.44,41.61c-2.4,9.87-8.6,14.81-16.78,14.81-7.76,0-15.66-4.8-18.05-14.81Z"></path>
    <path class="cls-2" d="m345.93,49.85c0-20.03,16.36-36.81,37.8-36.81s37.94,15.8,37.94,36.81v35.12h-19.04v-8.18c-4.94,6.21-12.55,10.01-22.14,10.01-20.31,0-34.56-16.64-34.56-36.95Zm55.71.14c0-9.87-7.62-18.05-17.91-18.05s-17.77,8.18-17.77,18.05,7.47,18.05,17.77,18.05,17.91-8.18,17.91-18.05Z"></path>
    <path class="cls-2" d="m425.75,15.15h21.3l18.34,52.04,18.19-52.04h21.3l-21.58,58.25c-3.39,9.03-9.45,13.54-18.05,13.54s-14.95-4.51-18.19-13.54l-21.3-58.25Zm39.63,52.61h-.14.14Z"></path>
    <path class="cls-2" d="m506.43,49.43c0-20.17,14.67-36.81,36.25-36.81s34.98,16.36,34.98,35.4v5.92h-51.9c1.41,9.31,8.6,15.51,18.62,15.51,7.62,0,13.96-3.67,17.21-10.15l15.37,7.76c-6.06,12.55-17.63,19.75-32.44,19.75-21.72,0-38.08-15.09-38.08-37.38Zm51.34-6.63c-.85-7.19-6.77-12.69-15.23-12.69s-14.53,5.64-15.94,12.69h31.17Z"></path>
    <path class="cls-2" d="m586.4,71.15l14.81-8.32c2.96,5.64,7.62,8.04,14.67,8.04,6.49,0,10.58-2.54,10.58-6.63,0-11.28-38.36-1.55-38.36-28.49,0-12.55,11-22.43,28.21-22.43,14.95,0,23.98,7.05,28.21,15.09l-14.81,8.32c-2.26-5.08-7.33-7.47-12.98-7.47-4.94,0-8.6,2.4-8.6,6.06,0,11.28,38.36,2.26,38.36,28.49,0,14.1-13.68,23.13-29.62,23.13-14.53,0-24.68-5.36-30.47-15.8Z"></path>
    <path class="cls-4" d="m168.54,49.98s-.07,0-.1,0c-3.64-.04-7.06-1.74-9.26-4.64l-19.96-26.18c-2.28-3-3.2-6.89-2.18-10.52C138.49,3.44,143.17,0,148.38,0h41.03c3.82,0,7.52,1.69,9.78,4.77,3.23,4.39,3.01,10.26-.28,14.36l-21.19,26.44c-2.24,2.79-5.62,4.41-9.18,4.41Z"></path>
    <path class="cls-1" d="m132.11,93.67c-6.65,0-13.22-2.99-17.56-8.69l-15.77-20.68c-2.16-2.84-6.44-2.82-8.59.04l-15.36,20.5c-4.17,5.56-10.71,8.83-17.65,8.83-.1,0-.19,0-.29,0-7.05-.09-13.63-3.55-17.71-9.3L4.07,34.82C-2.98,24.88-.64,11.11,9.3,4.06c9.94-7.05,23.71-4.7,30.76,5.24l13.35,18.84c2.11,2.98,6.51,3.03,8.7.12l14.56-19.42C80.83,3.27,87.37,0,94.32,0h0c6.88,0,13.37,3.21,17.54,8.68l37.78,49.55c7.39,9.69,5.52,23.53-4.17,30.92-3.99,3.05-8.7,4.52-13.36,4.52Z"></path>
  </g>
</svg>
